<svg xmlns="http://www.w3.org/2000/svg" xmlns:xlink="http://www.w3.org/1999/xlink" viewBox="0 0 1148.07 1149.48"><defs><style>.cls-1{fill:url(#Dégradé_sans_nom_28);}.cls-2{fill:#020202;}</style><linearGradient id="Dégradé_sans_nom_28" x1="60.11" y1="574.68" x2="1088.15" y2="574.68" gradientUnits="userSpaceOnUse"><stop offset="0" stop-color="#fab51d"/><stop offset="0.21" stop-color="#ee7339"/><stop offset="0.4" stop-color="#e62953"/><stop offset="0.59" stop-color="#ba1e47"/><stop offset="1" stop-color="#742264"/></linearGradient></defs><g id="Calque_2" data-name="Calque 2"><g id="Calque_1-2" data-name="Calque 1"><path class="cls-1" d="M573.49,62C292.9,61.94,61,293.55,60.11,574.58c-.84,280.34,230.82,512.24,512.19,512.74,283.7.54,514.66-227,515.85-508.3C1089.33,293.74,858.76,62.14,573.49,62Zm2.47,55.1c68.56.69,115.13,47.85,115.43,117,.34,70-51.45,122.54-119.63,121.21C508,354.07,455,300.6,454.16,236.62,453.27,169.24,507.09,116.45,576,117.14ZM147.67,487.91c-.24-68.82,46.22-117,113.91-118.1,70.83-1.13,122.78,48.84,122.53,117.9-.2,68.47-53.13,119.67-122.34,118.49C195.18,605.07,147.87,556.08,147.67,487.91ZM376,968.73c-69.9.69-120.07-49.93-119.48-120.52.55-66.4,50.12-116.61,116.18-117.6,68.71-1,120.31,51.11,119.62,121C491.65,919.64,443.6,968,376,968.73Zm85.79-387.15A119.63,119.63,0,1,1,581.38,701.16,119.61,119.61,0,0,1,461.76,581.58Zm314.72,387c-68.42,1.48-122.83-51.5-122.68-119.53.15-64,52.83-117.11,117.75-118.54,68-1.48,122.34,52,122.19,120.12C893.59,916.73,843.47,967.15,776.48,968.63ZM891.62,598.5c-66.75-3.45-114.84-55.24-113-121.59C780.58,408.63,835.92,357.53,904.3,361c65.36,3.26,115.13,56.83,113.31,121.94C1015.68,551.35,960.38,602.06,891.62,598.5Z"/><path d="M300.33,1087.4c-38.6-28.9-61.2-44.78-82.66-62.05C15.12,862.33-54.86,588.79,45.09,351.87,144,117.32,387-24.76,640.65,3.58,892.57,31.73,1094,223.77,1139.27,479c61.31,345.45-205.43,667.49-555.95,669.81-191.25,1.26-382.52.22-573.5.22-14.44-42.36-9-63.3,37.09-62.19C124.93,1088.77,203,1087.4,300.33,1087.4Zm272-.06c283.72.52,514.66-227,515.84-508.3,1.19-285.28-229.39-516.92-514.65-517C292.9,61.94,61,293.53,60.12,574.58,59.29,854.91,290.93,1086.82,572.29,1087.34Z"/><path d="M1017.6,482.92c-1.94,68.41-57.22,119.12-126,115.57C824.89,595,776.78,543.26,778.66,476.93c1.93-68.32,57.25-119.39,125.61-116C969.66,364.24,1019.44,417.8,1017.6,482.92Z"/><path d="M256.5,848.22c.55-66.41,50.14-116.62,116.15-117.62,68.72-1,120.32,51.13,119.65,121-.64,68-48.72,116.45-116.34,117.12C306.06,969.41,255.91,918.82,256.5,848.22Z"/><path d="M771.54,730.58c68-1.5,122.33,51.91,122.19,120.12-.13,66-50.28,116.46-117.23,117.92-68.45,1.48-122.84-51.49-122.7-119.52C653.93,785.05,706.62,732,771.54,730.58Z"/><path d="M147.66,487.88c-.24-68.77,46.25-116.95,113.91-118,70.83-1.16,122.81,48.84,122.56,117.88-.24,68.45-53.13,119.68-122.34,118.5C195.17,605.07,147.89,556.06,147.66,487.88Z"/><path d="M691.41,234.09c.34,70.06-51.46,122.55-119.63,121.22C508,354.07,455,300.58,454.18,236.63c-.89-67.41,52.9-120.19,121.78-119.48C644.53,117.84,691.08,165,691.41,234.09Z"/><path class="cls-2" d="M581.38,462A119.6,119.6,0,1,0,701,581.58,119.61,119.61,0,0,0,581.38,462Zm0,200.13a80.51,80.51,0,1,1,80.51-80.51A80.49,80.49,0,0,1,581.38,662.09Z"/></g></g></svg>